<svg xmlns="http://www.w3.org/2000/svg" width="277.623" height="164.4" viewBox="0 0 277.623 164.4">
  <g id="undraw_Login_re_4vu2" transform="translate(0)">
    <path id="Path_12763" data-name="Path 12763" d="M819.869,590.309a14.21,14.21,0,0,1-5.1-12.25,11.488,11.488,0,0,1,8.54-9.753c4.506-.972,9.642,1.718,11.011,6.119.753-8.486,1.621-17.328,6.133-24.554a26,26,0,0,1,18.829-12.063,23.332,23.332,0,0,1,20.525,8.379,21.175,21.175,0,0,1,2.6,21.8c-2.467,5.119-7.013,8.929-11.777,12.028a76.005,76.005,0,0,1-51.983,11.372Z" transform="translate(-609.321 -427.756)" fill="#e6e6e6"/>
    <path id="Path_12764" data-name="Path 12764" d="M916.878,545.632a125.413,125.413,0,0,0-36.85,49.828c-.352.861,1.047,1.236,1.395.385a124.018,124.018,0,0,1,36.478-49.19C918.623,546.067,917.594,545.049,916.878,545.632Z" transform="translate(-653.974 -433.078)" fill="#fff"/>
    <path id="Path_12765" data-name="Path 12765" d="M253.528,545.218c4.836-4.086,7.773-10.541,7-16.825s-5.541-12.061-11.73-13.4-13.244,2.359-15.123,8.405c-1.035-11.656-2.227-23.8-8.423-33.725a35.716,35.716,0,0,0-25.862-16.569A32.046,32.046,0,0,0,171.2,484.617c-6.569,8.313-8.177,20.4-3.577,29.943,3.389,7.031,9.633,12.263,16.175,16.52a104.393,104.393,0,0,0,71.4,15.62" transform="translate(-165 -383.473)" fill="#e6e6e6"/>
    <path id="Path_12766" data-name="Path 12766" d="M213.8,483.855a170.8,170.8,0,0,1,23.8,23.636,171.3,171.3,0,0,1,26.81,44.8c.483,1.183-1.438,1.7-1.916.528a170.338,170.338,0,0,0-50.1-67.562C211.4,484.452,212.813,483.054,213.8,483.855Z" transform="translate(-197.181 -390.783)" fill="#fff"/>
    <path id="Path_12767" data-name="Path 12767" d="M539.874,353.984H424.5V235.606a45.727,45.727,0,0,1,45.676-45.676H494.2a45.727,45.727,0,0,1,45.676,45.676Z" transform="translate(-342.474 -189.931)" fill="#f2f2f2"/>
    <path id="Path_12768" data-name="Path 12768" d="M515.851,353.986H424.5V235.609a45.322,45.322,0,0,1,8.723-26.85c.21-.286.419-.568.635-.847a45.665,45.665,0,0,1,9.721-9.436c.209-.152.418-.3.63-.45a45.569,45.569,0,0,1,9.948-5.2c.209-.079.422-.159.634-.235a45.523,45.523,0,0,1,9.833-2.319c.208-.028.421-.051.635-.073a46.239,46.239,0,0,1,9.832,0c.213.022.426.044.637.073a45.516,45.516,0,0,1,9.831,2.319c.213.076.425.155.635.235a45.455,45.455,0,0,1,9.833,5.126c.212.146.425.295.634.444a46.146,46.146,0,0,1,5.811,4.92,45.613,45.613,0,0,1,4.022,4.6c.215.278.424.561.634.846a45.323,45.323,0,0,1,8.723,26.851Z" transform="translate(-342.473 -189.933)" fill="#ccc"/>
    <circle id="Ellipse_1450" data-name="Ellipse 1450" cx="5.058" cy="5.058" r="5.058" transform="translate(160.892 100.992)" fill="#ff6100"/>
    <path id="Path_12769" data-name="Path 12769" d="M582.225,475.442H578.35l-1.844-14.947h5.72Z" transform="translate(-394.276 -314.935)" fill="#ffb8b8"/>
    <path id="Path_12770" data-name="Path 12770" d="M563.4,504.28h7.474v4.706H558.695A4.706,4.706,0,0,1,563.4,504.28Z" transform="translate(-382.095 -344.88)" fill="#2f2e41"/>
    <path id="Path_12771" data-name="Path 12771" d="M643.225,475.442H639.35l-1.844-14.947h5.72Z" transform="translate(-435.994 -314.935)" fill="#ffb8b8"/>
    <path id="Path_12772" data-name="Path 12772" d="M624.4,504.28h7.474v4.706H619.695A4.706,4.706,0,0,1,624.4,504.28Z" transform="translate(-423.813 -344.88)" fill="#2f2e41"/>
    <path id="Path_12773" data-name="Path 12773" d="M696.83,439.207a3.4,3.4,0,0,1,1.426-5.008l13.174-36.309,6.482,3.538-15.041,34.7a3.414,3.414,0,0,1-6.04,3.081Z" transform="translate(-528.321 -332.156)" fill="#ffb8b8"/>
    <path id="Path_12774" data-name="Path 12774" d="M803.528,455.993a3.4,3.4,0,0,1-.914-5.126l-4.081-38.408,7.377.337,1.7,37.78a3.414,3.414,0,0,1-4.077,5.418Z" transform="translate(-598.277 -342.119)" fill="#ffb8b8"/>
    <circle id="Ellipse_1451" data-name="Ellipse 1451" cx="7.764" cy="7.764" r="7.764" transform="translate(185.719 43.482)" fill="#ffb8b8"/>
    <path id="Path_12775" data-name="Path 12775" d="M763.538,428.94H740.133l.028-.182c.042-.272,4.171-27.323,1.126-36.173a3.734,3.734,0,0,1,1.918-4.61h0c4.353-2.05,12.709-4.574,19.762,1.552a8.925,8.925,0,0,1,2.99,7.4Z" transform="translate(-558.337 -323.801)" fill="#ff6100"/>
    <path id="Path_12776" data-name="Path 12776" d="M731.555,411.049l-10.538-2.138,4.939-11.7a4.424,4.424,0,0,1,8.568,2.212Z" transform="translate(-545.264 -329.417)" fill="#ff6100"/>
    <path id="Path_12777" data-name="Path 12777" d="M795.492,416.79l-.633-14.522c-.48-2.73,1.082-5.31,3.486-5.732s4.751,1.473,5.234,4.223l2.381,13.569Z" transform="translate(-595.705 -331.19)" fill="#ff6100"/>
    <path id="Path_12778" data-name="Path 12778" d="M760.032,517.049c3.766,14.343,4.177,32.58,3.161,52.472l-5.057-.632-9.167-37.931-5.057,38.563-5.69-.316c-1.7-20.872-3.355-38.79-.632-50.575Z" transform="translate(-555.609 -413.649)" fill="#2f2e41"/>
    <path id="Path_12779" data-name="Path 12779" d="M762.054,333.514a2.508,2.508,0,0,1-4.327-1.393,2.55,2.55,0,0,1,0-.492c.1-.934.637-1.781.508-2.767a1.451,1.451,0,0,0-.266-.679c-1.154-1.546-3.863.691-4.953-.708-.668-.858.117-2.209-.4-3.167-.676-1.266-2.68-.641-3.937-1.334-1.4-.771-1.314-2.916-.394-4.221a6.639,6.639,0,0,1,5.033-2.562,13.5,13.5,0,0,1,5.687,1.11,11.366,11.366,0,0,1,5.374,3.726,9.1,9.1,0,0,1,.92,7.745A14.6,14.6,0,0,1,762.054,333.514Z" transform="translate(-563.456 -276.268)" fill="#2f2e41"/>
    <path id="Path_12780" data-name="Path 12780" d="M537.492,708.031H265.935a.42.42,0,1,1,0-.838H537.492a.42.42,0,1,1,0,.838Z" transform="translate(-260.307 -543.732)" fill="#e6e6e6"/>
    <path id="Path_12781" data-name="Path 12781" d="M540.647,393.207H499.555a2.044,2.044,0,0,1-2.055-2.028V299.458a2.044,2.044,0,0,1,2.055-2.028h41.092a2.044,2.044,0,0,1,2.055,2.028v91.721A2.044,2.044,0,0,1,540.647,393.207Z" transform="translate(-392.399 -263.451)" fill="#fff"/>
    <rect id="Rectangle_4651" data-name="Rectangle 4651" width="45.201" height="0.632" transform="translate(105.101 63.658)" fill="#ccc"/>
    <rect id="Rectangle_4652" data-name="Rectangle 4652" width="45.201" height="0.632" transform="translate(105.259 99.728)" fill="#ccc"/>
    <rect id="Rectangle_4653" data-name="Rectangle 4653" width="0.632" height="96.093" transform="translate(119.325 33.98)" fill="#ccc"/>
    <rect id="Rectangle_4654" data-name="Rectangle 4654" width="0.632" height="96.093" transform="translate(135.13 33.98)" fill="#ccc"/>
  </g>
</svg>
